<?xml version="1.0" standalone="no"?>
<!DOCTYPE svg PUBLIC "-//W3C//DTD SVG 20010904//EN"
 "http://www.w3.org/TR/2001/REC-SVG-20010904/DTD/svg10.dtd">
<svg version="1.0" xmlns="http://www.w3.org/2000/svg"
 width="512.000000pt" height="512.000000pt" viewBox="0 0 512.000000 512.000000"
 preserveAspectRatio="xMidYMid meet">
<metadata>
Created by potrace 1.14, written by Peter Selinger 2001-2017
</metadata>
<g transform="translate(0.000000,512.000000) scale(0.100000,-0.100000)"
fill="#000000" stroke="none">
<path d="M940 5106 c0 -8 7 -21 15 -29 8 -8 11 -17 8 -20 -3 -4 4 -5 15 -2 12
2 25 -2 29 -9 5 -8 17 -16 28 -18 11 -2 19 -10 17 -18 -2 -10 0 -11 11 -2 11
9 18 8 31 -7 10 -11 27 -18 38 -16 11 3 27 -2 35 -10 8 -9 19 -13 24 -9 5 3
12 -1 15 -10 3 -9 18 -14 36 -14 17 1 36 -5 42 -13 6 -8 19 -13 30 -11 10 2
22 -1 25 -7 4 -6 21 -11 39 -13 17 -1 34 -8 37 -16 3 -7 10 -10 16 -7 5 4 16
-1 23 -11 9 -11 21 -15 35 -11 14 3 24 0 28 -9 3 -8 13 -14 23 -14 11 0 22 -4
25 -10 3 -5 17 -10 31 -10 14 0 32 -7 41 -15 8 -8 18 -13 23 -10 4 3 10 -2 14
-10 3 -8 12 -12 21 -9 9 4 17 -1 21 -11 4 -9 12 -14 19 -11 13 5 55 -28 55
-43 0 -5 9 -7 20 -4 14 4 20 0 20 -12 0 -11 5 -15 15 -11 9 3 25 -4 38 -17 12
-12 27 -22 32 -22 6 -1 23 -13 38 -27 18 -17 35 -24 45 -21 9 3 14 3 10 -1 -7
-8 95 -110 112 -112 6 -1 15 -2 21 -3 5 0 7 -5 4 -11 -3 -5 0 -10 8 -10 10 0
13 -7 10 -20 -4 -14 0 -20 11 -20 10 0 15 -3 13 -7 -2 -5 4 -16 15 -25 10 -10
18 -15 18 -11 0 9 29 -30 30 -39 0 -4 -15 -6 -32 -5 -18 2 -43 0 -55 -5 -13
-4 -23 -4 -23 0 0 12 -84 6 -88 -7 -2 -6 -16 -11 -32 -11 -15 0 -33 -7 -40
-15 -6 -8 -15 -14 -18 -13 -15 2 -72 -25 -72 -34 0 -6 -7 -7 -15 -4 -9 3 -18
-1 -21 -9 -7 -17 -64 -21 -64 -5 0 6 -7 10 -15 10 -8 0 -14 5 -12 11 1 6 -7
12 -18 13 -11 1 -36 18 -55 38 -19 19 -41 33 -47 31 -7 -3 -13 3 -13 13 0 9
-3 15 -6 11 -3 -3 -17 5 -31 19 -13 13 -29 24 -36 24 -7 0 -20 11 -30 24 -12
16 -25 22 -38 19 -13 -4 -19 0 -19 10 0 17 -33 40 -43 30 -4 -3 -9 2 -13 11
-3 9 -14 16 -24 16 -10 0 -25 7 -34 15 -8 9 -18 15 -21 14 -12 -3 -65 24 -65
33 0 5 -4 7 -9 4 -4 -3 -17 1 -27 9 -10 8 -27 15 -37 15 -10 0 -15 5 -12 10 3
6 -1 10 -9 10 -8 0 -35 11 -59 25 -25 13 -47 22 -50 19 -3 -3 -18 1 -34 8 -15
8 -35 14 -43 13 -8 0 -21 5 -28 12 -13 12 -33 17 -58 14 -7 -1 -14 6 -18 14
-4 12 -10 13 -24 6 -13 -7 -22 -7 -30 1 -7 7 -12 8 -12 3 0 -6 -4 -4 -9 4 -5
7 -24 14 -42 15 -19 1 -43 6 -54 12 -11 6 -51 10 -89 10 -38 -1 -74 3 -80 9
-16 16 -246 17 -246 1 0 -7 -14 -12 -32 -12 -30 1 -33 -2 -36 -33 -2 -21 0
-31 7 -26 6 3 11 2 11 -3 0 -5 7 -9 15 -9 8 0 15 5 15 11 0 6 6 1 14 -10 12
-17 24 -20 65 -18 33 1 51 -3 55 -11 3 -9 26 -12 81 -11 48 2 81 -1 88 -9 7
-6 48 -12 96 -13 52 0 87 -5 91 -12 5 -8 28 -11 63 -9 42 3 58 0 65 -12 6 -9
22 -14 42 -13 17 1 43 -4 57 -11 14 -7 32 -11 39 -8 8 3 14 -1 14 -9 0 -10 9
-14 28 -13 15 1 30 -3 34 -8 3 -6 14 -11 25 -12 25 -2 103 -37 103 -46 0 -4 9
-6 21 -4 12 2 28 -2 36 -10 8 -9 18 -13 22 -10 5 2 19 -7 31 -20 13 -14 32
-25 42 -25 10 0 18 -4 18 -10 0 -5 9 -10 19 -10 10 0 21 -7 25 -15 3 -8 11
-12 19 -9 13 5 44 -22 47 -41 1 -5 7 -9 13 -7 16 5 57 -19 51 -30 -5 -7 27
-13 51 -8 6 1 4 -4 -3 -12 -9 -9 -47 -13 -128 -13 -86 -1 -117 -4 -124 -14 -5
-8 -17 -12 -30 -8 -13 3 -23 0 -27 -9 -3 -8 -10 -11 -15 -8 -6 4 -13 2 -17 -3
-3 -6 -27 -20 -52 -31 -51 -24 -229 -191 -229 -215 0 -9 -5 -17 -10 -19 -6 -2
-12 -13 -13 -25 0 -12 -5 -19 -9 -17 -4 3 -8 0 -8 -5 0 -21 -2 -26 -13 -40 -6
-7 -13 -25 -15 -39 -2 -15 -7 -29 -12 -32 -5 -3 -9 -16 -10 -28 0 -12 0 -31
-1 -42 0 -11 -6 -20 -12 -20 -11 0 -13 -48 -8 -148 1 -7 6 -10 13 -6 7 5 9 1
6 -13 -3 -11 -1 -28 4 -37 6 -11 5 -16 -2 -16 -16 0 -44 -29 -47 -49 -1 -8 -8
-20 -16 -26 -8 -5 -22 -28 -32 -50 -10 -22 -30 -52 -43 -67 -14 -16 -22 -28
-17 -28 4 0 0 -9 -9 -19 -10 -11 -15 -25 -11 -30 3 -6 2 -11 -3 -11 -5 0 -14
-12 -20 -26 -10 -19 -9 -24 0 -18 6 4 2 -9 -11 -29 -12 -20 -19 -37 -14 -37 4
0 2 -4 -6 -9 -8 -5 -16 -17 -17 -27 -2 -9 -8 -20 -15 -24 -6 -5 -9 -15 -6 -23
3 -8 -1 -24 -9 -36 -9 -12 -14 -29 -13 -39 3 -34 -1 -53 -11 -47 -6 4 -10 -13
-10 -43 0 -31 -5 -52 -12 -55 -18 -6 -17 -352 0 -369 7 -7 12 -20 12 -30 0
-10 6 -18 14 -18 9 0 12 -8 8 -25 -3 -18 2 -31 18 -45 12 -10 23 -25 24 -32 6
-27 18 -48 26 -43 5 3 11 -4 15 -15 3 -11 13 -20 21 -20 8 0 14 -5 14 -11 0
-5 4 -8 9 -5 5 3 14 -1 21 -9 7 -8 21 -15 30 -15 10 0 20 -5 22 -11 6 -17 256
-18 263 -2 2 7 18 13 35 13 16 0 30 5 30 10 0 6 8 10 19 10 10 0 24 6 31 14 6
8 17 13 24 10 8 -3 16 1 19 8 3 10 21 13 53 12 65 -2 66 -2 58 -16 -5 -7 -2
-9 8 -6 8 4 21 2 28 -2 11 -7 10 -11 -3 -25 -10 -9 -16 -20 -14 -23 2 -4 -4
-15 -15 -24 -10 -10 -18 -15 -18 -10 0 4 -5 0 -10 -8 -5 -8 -14 -16 -20 -16
-5 -1 -15 -2 -22 -3 -6 0 -9 -4 -5 -7 3 -3 -2 -14 -11 -23 -12 -13 -22 -15
-34 -9 -12 6 -18 5 -18 -2 0 -6 -5 -8 -10 -5 -6 3 -13 -1 -16 -9 -3 -9 -10
-14 -14 -11 -5 3 -20 -6 -33 -19 -14 -14 -28 -22 -31 -19 -3 4 -6 2 -6 -3 0
-6 -9 -20 -20 -31 -11 -12 -21 -28 -22 -35 -2 -7 -8 -18 -14 -25 -16 -17 -15
-213 1 -219 7 -3 11 -18 10 -34 -2 -18 3 -31 12 -34 8 -3 12 -10 9 -15 -4 -5
1 -16 9 -25 8 -8 14 -19 13 -24 -2 -5 8 -20 22 -34 14 -13 26 -31 28 -39 2 -7
8 -16 13 -17 5 -2 7 -8 3 -13 -3 -5 2 -9 10 -9 9 0 16 -7 16 -16 0 -8 5 -12
10 -9 6 3 10 -1 10 -11 0 -11 6 -15 19 -11 12 3 22 -1 25 -10 3 -8 12 -13 18
-11 7 3 21 -4 32 -13 10 -10 23 -16 28 -13 4 3 10 -1 13 -8 6 -16 148 -14 153
2 2 5 11 10 20 10 9 0 35 20 59 45 23 25 47 45 53 45 6 0 9 4 6 9 -3 5 6 11
19 14 14 2 28 0 31 -5 3 -5 11 -5 18 1 7 6 16 8 20 4 3 -4 24 12 47 35 36 38
40 46 38 90 -2 26 -9 52 -16 57 -15 12 -7 49 8 39 6 -3 17 0 26 7 8 7 26 14
39 15 13 0 30 7 39 14 20 16 21 103 1 120 -8 6 -12 18 -9 26 3 8 -1 14 -11 14
-9 0 -15 4 -13 8 1 5 -12 22 -29 38 -37 35 -48 69 -28 85 8 7 13 18 10 25 -3
7 4 16 14 19 10 3 17 12 14 19 -6 16 43 69 67 73 11 2 19 -3 19 -11 0 -9 12
-13 45 -11 30 2 45 -1 45 -9 0 -9 40 -12 158 -11 147 1 189 -5 176 -26 -3 -5
6 -5 20 1 19 7 26 6 26 -3 0 -7 3 -8 8 -2 7 10 112 14 112 4 0 -11 45 -25 73
-23 19 2 27 -2 27 -13 0 -10 6 -13 16 -9 11 4 27 -4 45 -24 32 -33 35 -40 16
-40 -10 0 -13 -25 -12 -106 1 -104 -7 -134 -36 -134 -5 0 -9 -5 -9 -11 0 -14
-26 -39 -40 -39 -6 0 -8 -5 -5 -10 3 -5 -1 -10 -10 -10 -12 0 -15 -6 -10 -20
4 -14 2 -20 -8 -20 -10 0 -14 -8 -12 -25 1 -16 -3 -25 -11 -25 -8 0 -14 -9
-14 -20 0 -11 -6 -23 -14 -26 -8 -3 -12 -13 -9 -25 4 -12 0 -19 -9 -19 -11 0
-14 -13 -13 -55 1 -30 -1 -52 -5 -50 -13 8 -17 -17 -16 -100 1 -48 6 -79 12
-78 6 1 10 -23 9 -60 0 -34 4 -65 9 -69 8 -5 13 -24 15 -66 1 -7 5 -11 10 -8
5 3 11 -3 14 -14 3 -11 1 -18 -3 -15 -4 3 -6 -4 -3 -14 3 -11 11 -22 18 -25 8
-3 11 -13 8 -27 -4 -15 -3 -20 5 -15 7 4 12 2 12 -3 0 -22 2 -26 17 -43 8 -9
12 -21 9 -27 -4 -5 1 -14 11 -19 15 -9 15 -11 1 -25 -9 -9 -14 -28 -12 -44 1
-15 -2 -30 -7 -34 -6 -3 -11 -14 -13 -23 -1 -10 -8 -21 -15 -25 -7 -4 -11 -12
-10 -17 4 -21 -2 -35 -11 -29 -6 4 -10 -5 -10 -20 0 -15 -4 -24 -10 -20 -5 3
-10 -3 -10 -14 0 -11 -7 -26 -14 -34 -22 -22 -56 -85 -56 -104 0 -9 -3 -14 -6
-10 -9 8 -41 -26 -37 -40 3 -6 -5 -21 -16 -32 -12 -12 -21 -18 -21 -14 0 15
-29 -33 -30 -48 0 -9 -11 -24 -25 -33 -14 -9 -23 -22 -19 -27 3 -6 -15 -31
-41 -55 -25 -25 -47 -53 -48 -64 -1 -10 -4 -17 -7 -16 -8 4 -39 -32 -32 -38
11 -12 35 -6 48 12 9 11 13 12 14 4 0 -9 5 -10 19 -3 10 6 21 7 25 4 3 -3 15
2 26 12 11 10 20 15 20 11 0 -3 19 5 41 20 24 15 50 24 61 21 11 -3 21 0 25 9
3 8 13 14 23 14 10 0 23 7 30 15 7 8 16 12 21 10 4 -3 12 3 18 12 6 10 11 14
11 10 0 -5 7 -1 16 7 8 9 19 14 24 11 4 -3 10 2 14 10 3 8 18 15 32 15 15 0
25 3 21 6 -10 11 26 42 44 39 11 -2 19 1 19 6 0 15 29 41 38 35 5 -3 22 8 37
24 15 16 32 27 37 24 5 -3 18 5 30 18 11 12 24 22 29 20 6 -1 20 9 33 23 13
13 26 21 30 17 4 -4 6 -2 4 3 -4 13 40 61 48 52 4 -4 22 10 41 30 34 35 37 36
104 35 49 -1 71 3 75 12 3 9 24 12 67 10 40 -1 70 3 84 11 11 8 31 12 43 10
12 -2 35 2 51 10 15 8 37 15 49 15 14 0 19 4 14 12 -5 7 0 9 14 6 12 -3 29 0
39 8 10 7 26 14 36 14 10 0 20 7 23 15 4 8 10 13 14 10 4 -3 10 2 14 10 3 8
13 15 23 15 10 0 24 9 31 20 7 11 18 20 26 20 18 0 77 55 69 64 -3 3 -1 6 6 6
16 0 41 25 41 41 0 6 11 22 25 35 15 14 22 29 19 38 -4 11 0 16 11 16 9 0 14
4 11 8 -3 5 3 14 13 21 11 8 16 21 14 32 -3 10 2 25 11 34 8 9 13 22 9 31 -3
9 0 14 8 12 10 -2 13 7 12 29 -1 19 4 34 12 37 9 3 13 17 11 41 -3 25 1 38 10
42 11 4 13 21 11 69 -2 47 0 64 10 64 18 0 19 286 1 292 -7 3 -11 27 -10 64 0
33 -5 62 -11 66 -16 10 -16 86 0 92 8 3 12 23 11 52 0 25 4 49 9 53 14 9 18
165 4 156 -7 -3 -11 3 -12 17 -3 72 -5 86 -15 99 -6 8 -10 26 -9 41 1 15 -1
26 -4 24 -6 -3 -41 30 -41 39 -2 18 -32 75 -40 75 -6 0 -10 6 -10 14 0 8 -8
17 -18 20 -11 4 -25 18 -32 31 -7 14 -15 23 -18 21 -5 -5 -40 29 -69 68 -13
16 -23 27 -23 23 0 -3 -18 12 -40 34 -22 22 -40 45 -40 50 0 6 -5 7 -10 4 -6
-4 -10 5 -10 19 0 17 -6 26 -16 26 -8 0 -13 4 -10 9 3 5 -1 11 -9 15 -17 6
-10 35 14 53 11 8 12 12 4 13 -16 0 22 40 39 40 6 0 9 3 5 6 -3 4 1 13 9 22
21 20 370 24 386 5 7 -9 7 -13 -1 -13 -15 0 -85 -69 -87 -88 -2 -8 -7 -18 -13
-21 -18 -12 -4 -59 28 -91 17 -17 31 -35 31 -39 0 -4 14 -6 30 -5 17 1 30 -2
30 -7 0 -5 7 -9 16 -9 9 0 37 -20 62 -45 24 -25 49 -45 54 -45 6 0 8 -9 5 -20
-3 -14 1 -24 14 -31 11 -5 17 -14 14 -19 -3 -6 1 -7 10 -4 10 4 28 -6 51 -29
31 -31 42 -35 81 -34 37 1 49 7 73 34 16 18 33 33 37 33 11 1 46 50 35 50 -8
0 -9 17 -3 53 0 5 6 5 12 1 6 -4 10 1 8 12 -3 25 11 55 22 49 4 -3 6 3 4 14
-2 11 3 22 12 25 9 4 13 9 10 13 -4 3 -2 12 4 19 5 7 12 25 15 40 3 16 8 31
12 34 12 9 14 60 3 60 -6 0 -11 7 -11 16 0 19 -55 85 -64 77 -3 -4 -6 -2 -6 4
0 12 -89 103 -101 103 -5 0 -9 7 -9 15 0 8 -8 15 -17 15 -20 1 -73 44 -73 60
0 5 -3 9 -7 9 -23 -4 -43 2 -38 11 3 6 1 10 -5 10 -14 0 -40 25 -40 38 0 6 -9
8 -20 5 -13 -4 -20 0 -20 10 0 15 23 30 51 31 9 1 22 6 30 12 8 6 22 10 31 9
10 -2 16 1 15 7 -1 6 7 12 18 14 11 1 24 9 30 17 5 7 15 12 21 10 6 -2 17 3
23 11 7 8 18 13 25 10 8 -3 16 2 20 11 3 9 10 14 16 10 5 -3 25 10 44 30 19
19 40 35 47 35 13 0 115 101 112 111 -1 4 9 19 22 33 14 15 25 34 25 42 0 7 5
14 10 14 6 0 10 9 10 20 0 11 6 23 13 25 8 4 12 26 12 63 -1 46 -6 63 -23 82
-12 13 -22 21 -22 17 0 -4 -12 -1 -27 6 -16 8 -34 12 -40 10 -7 -3 -15 2 -18
10 -5 10 -22 14 -66 12 -33 0 -63 3 -66 8 -7 12 28 48 41 40 6 -3 8 -3 4 1 -3
4 14 27 38 51 24 24 44 49 44 55 0 7 16 27 36 47 20 19 33 37 30 40 -3 3 8 21
24 40 17 19 28 38 25 43 -3 4 2 11 11 14 8 3 12 10 9 16 -3 6 1 17 9 26 9 9
14 19 11 24 -3 4 2 10 10 14 12 4 14 23 12 93 -1 60 -6 87 -13 86 -7 -1 -10 5
-8 15 5 22 -21 55 -38 50 -7 -3 -18 2 -24 10 -8 12 -35 15 -115 16 -89 1 -107
-2 -123 -18 -10 -10 -21 -14 -25 -10 -10 15 -46 10 -53 -7 -4 -12 -14 -15 -33
-11 -17 3 -30 0 -35 -9 -5 -7 -21 -14 -35 -15 -15 0 -30 -6 -34 -12 -3 -6 -18
-9 -33 -8 -16 2 -29 -3 -32 -11 -3 -8 -10 -12 -15 -9 -5 3 -14 -1 -21 -9 -7
-8 -26 -15 -42 -15 -17 0 -31 -6 -35 -16 -3 -8 -11 -13 -18 -10 -7 2 -23 -6
-36 -20 -12 -13 -31 -24 -41 -24 -12 0 -16 -4 -12 -12 5 -8 2 -9 -10 -5 -11 4
-25 -3 -43 -23 -14 -16 -30 -27 -35 -23 -6 3 -21 -7 -34 -22 -13 -16 -27 -25
-31 -22 -3 4 -16 -5 -29 -18 -13 -14 -28 -25 -35 -25 -7 0 -26 -15 -44 -32
-17 -18 -37 -33 -45 -33 -7 0 -34 -21 -59 -47 -25 -27 -49 -48 -54 -48 -9 0 1
62 11 70 4 3 9 16 10 30 2 14 8 29 13 35 5 5 9 21 9 36 0 15 5 29 11 31 6 2
11 21 12 43 1 22 7 45 13 52 7 7 11 32 9 57 -2 32 2 46 12 51 8 3 13 11 10 19
-3 7 0 19 6 25 6 6 7 11 1 11 -5 0 -9 43 -8 101 0 73 -3 102 -12 106 -7 2 -11
10 -8 17 3 7 -9 27 -25 45 -22 24 -36 31 -51 26 -11 -3 -20 -9 -20 -13 0 -4
-12 -8 -27 -9 -15 0 -29 -6 -31 -12 -2 -5 -9 -8 -16 -5 -7 3 -24 -8 -38 -24
-13 -15 -29 -27 -35 -25 -14 5 -93 -71 -93 -89 0 -6 -3 -9 -6 -5 -11 10 -34
-20 -34 -44 0 -12 -3 -20 -6 -17 -7 8 -62 -45 -57 -54 2 -5 -3 -8 -11 -8 -9 0
-16 -8 -16 -18 0 -10 -10 -29 -22 -42 -12 -13 -23 -31 -25 -39 -1 -9 -12 -24
-24 -33 -12 -11 -19 -24 -15 -33 3 -8 0 -15 -7 -15 -13 0 -37 -44 -37 -67 0
-8 -7 -16 -16 -20 -8 -3 -13 -12 -10 -19 3 -7 -2 -20 -10 -29 -9 -9 -14 -24
-12 -33 3 -10 -1 -23 -9 -30 -7 -7 -13 -22 -13 -33 0 -11 -4 -17 -10 -14 -5 3
-10 2 -10 -3 0 -18 -33 -23 -42 -7 -5 8 -13 13 -19 10 -5 -4 -9 1 -9 11 0 11
-6 15 -20 11 -11 -3 -20 -1 -20 4 0 5 -22 19 -50 31 -27 12 -47 24 -45 28 2 3
-6 7 -17 7 -12 1 -24 7 -28 14 -4 6 -12 9 -17 6 -5 -3 -21 0 -35 7 -15 8 -55
13 -99 12 -65 -1 -77 2 -96 22 -12 13 -31 24 -42 25 -12 1 -21 5 -21 10 0 5
-7 15 -15 23 -8 9 -15 13 -15 10 0 -3 -17 3 -37 14 -21 11 -39 16 -41 11 -2
-6 -95 82 -207 194 -112 113 -208 205 -214 205 -17 0 -51 33 -44 43 3 6 1 7
-6 3 -6 -4 -14 0 -17 8 -3 9 -10 14 -15 11 -4 -3 -24 10 -44 30 -20 19 -42 35
-48 35 -6 0 -20 9 -31 19 -12 11 -27 21 -34 23 -8 2 -27 15 -44 30 -16 15 -35
26 -41 25 -7 -1 -11 3 -10 10 1 6 -5 10 -15 8 -9 -1 -20 3 -24 9 -7 11 -11 12
-44 15 -9 0 -12 6 -8 13 5 7 2 9 -9 5 -8 -3 -21 1 -27 9 -7 8 -21 14 -31 14
-11 0 -19 5 -19 10 0 6 -13 10 -30 10 -16 0 -30 5 -30 10 0 6 -8 10 -19 10
-10 0 -24 6 -30 14 -6 7 -27 12 -47 11 -21 -1 -38 4 -41 11 -2 7 -19 12 -36
12 -51 0 -59 1 -52 12 4 6 -35 10 -109 10 -94 0 -116 -3 -116 -14z m2705
-1086 c3 -5 -1 -10 -9 -10 -9 0 -16 5 -16 10 0 6 4 10 9 10 6 0 13 -4 16 -10z"/>
<path d="M3116 437 c-24 -26 -26 -31 -13 -39 9 -4 14 -17 12 -28 -2 -11 0 -18
6 -15 5 4 12 -1 15 -10 4 -10 16 -15 33 -13 14 1 32 -2 40 -6 9 -6 12 -5 7 2
-3 6 2 15 12 21 23 12 26 79 4 100 -8 8 -31 15 -51 16 -28 1 -42 -6 -65 -28z"/>
</g>
</svg>
