<?xml version="1.0" encoding="UTF-8" standalone="no"?>
<svg
   id="Layer_1"
   data-name="Layer 1"
   viewBox="0 0 350 140"
   version="1.1"
   sodipodi:docname="gt-logo-2021.svg"
   width="350"
   height="140"
   inkscape:version="1.2 (dc2aedaf03, 2022-05-15)"
   xmlns:inkscape="http://www.inkscape.org/namespaces/inkscape"
   xmlns:sodipodi="http://sodipodi.sourceforge.net/DTD/sodipodi-0.dtd"
   xmlns="http://www.w3.org/2000/svg"
   xmlns:svg="http://www.w3.org/2000/svg">
  <sodipodi:namedview
     id="namedview41"
     pagecolor="#ffffff"
     bordercolor="#000000"
     borderopacity="0.25"
     inkscape:showpageshadow="false"
     inkscape:pageopacity="0"
     inkscape:pagecheckerboard="true"
     inkscape:deskcolor="#d1d1d1"
     showgrid="false"
     showborder="true"
     borderlayer="false"
     inkscape:zoom="1.8528696"
     inkscape:cx="264.45467"
     inkscape:cy="48.843158"
     inkscape:window-width="2880"
     inkscape:window-height="1514"
     inkscape:window-x="3733"
     inkscape:window-y="385"
     inkscape:window-maximized="1"
     inkscape:current-layer="Layer_1" />
  <defs
     id="defs4">
    <style
       id="style2">.cls-1{fill:#fff;}</style>
  </defs>
  <g
     id="g4077"
     transform="translate(19.631572,39.600598)">
    <path
       class="cls-1"
       d="m 154.103,36.641848 h 27.26 a 0.44,0.44 0 0 1 0.5,0.5 v 8.1 a 0.45,0.45 0 0 1 -0.5,0.51 h -4.36 a 0.45,0.45 0 0 1 -0.51,-0.51 v -3 a 0.27,0.27 0 0 0 -0.3,-0.3 h -5.19 a 0.27,0.27 0 0 0 -0.3,0.3 v 23.58 a 0.27,0.27 0 0 0 0.3,0.3 h 2.64 a 0.45,0.45 0 0 1 0.5,0.51 v 4 a 0.45,0.45 0 0 1 -0.5,0.51 h -11.84 a 0.45,0.45 0 0 1 -0.51,-0.51 v -4 a 0.45,0.45 0 0 1 0.51,-0.51 h 2.63 c 0.21,0 0.31,-0.1 0.31,-0.3 v -23.58 c 0,-0.2 -0.1,-0.3 -0.31,-0.3 h -5.16 c -0.21,0 -0.31,0.1 -0.31,0.3 v 3 a 0.45,0.45 0 0 1 -0.5,0.51 h -4.36 a 0.45,0.45 0 0 1 -0.51,-0.51 v -8.1 a 0.45,0.45 0 0 1 0.51,-0.5 z"
       id="path6" />
    <path
       class="cls-1"
       d="m 192.313,46.111848 a 11.07,11.07 0 0 1 6.39,1.8 9.31,9.31 0 0 1 3.65,4.94 25.17,25.17 0 0 1 0.81,7.35 c 0,0.33 -0.19,0.5 -0.56,0.5 h -15 c -0.2,0 -0.3,0.1 -0.3,0.31 a 5.51,5.51 0 0 0 0.35,1.87 q 1.28,3.7 5.47,3.7 a 7.39,7.39 0 0 0 5.68,-2.34 c 0.27,-0.27 0.52,-0.3 0.76,-0.1 l 3,2.63 a 0.47,0.47 0 0 1 0,0.71 q -3.54,4.16 -10,4.16 a 11.33,11.33 0 0 1 -6.51,-1.8 9.18,9.18 0 0 1 -3.68,-5 19.63,19.63 0 0 1 -0.86,-6 19.91,19.91 0 0 1 0.81,-6 9.1,9.1 0 0 1 3.68,-5 11.09,11.09 0 0 1 6.31,-1.73 z m 0.06,4.81 q -3.75,0 -4.82,3.15 a 6.59,6.59 0 0 0 -0.3,2.07 c 0,0.21 0.1,0.31 0.3,0.31 h 9.58 c 0.2,0 0.3,-0.1 0.3,-0.31 a 6.59,6.59 0 0 0 -0.3,-2.07 4.42,4.42 0 0 0 -1.78,-2.31 5.26,5.26 0 0 0 -2.98,-0.84 z"
       id="path8" />
    <path
       class="cls-1"
       d="m 218.003,46.111848 a 16.61,16.61 0 0 1 8.41,1.93 0.67,0.67 0 0 1 0.4,0.66 v 5.54 a 0.44,0.44 0 0 1 -0.5,0.5 h -4.31 a 0.44,0.44 0 0 1 -0.51,-0.5 v -2.2 c 0,-0.14 -0.08,-0.25 -0.25,-0.36 a 7.38,7.38 0 0 0 -3.09,-0.5 q -4,0 -5,3.19 a 15.45,15.45 0 0 0 -0.5,4.51 15.65,15.65 0 0 0 0.5,4.56 q 1.07,3.14 5,3.14 a 7.38,7.38 0 0 0 3.09,-0.46 0.34,0.34 0 0 0 0.25,-0.35 v -2.28 a 0.45,0.45 0 0 1 0.51,-0.51 h 4.31 a 0.45,0.45 0 0 1 0.5,0.51 v 5.62 a 0.67,0.67 0 0 1 -0.4,0.66 18,18 0 0 1 -8.41,1.88 q -8.26,0 -10.39,-6.59 a 20.08,20.08 0 0 1 -0.76,-6.18 19.46,19.46 0 0 1 0.76,-6 9.1,9.1 0 0 1 3.78,-5 11.89,11.89 0 0 1 6.61,-1.77 z"
       id="path10" />
    <path
       class="cls-1"
       d="m 230.783,36.641848 h 7.65 a 0.45,0.45 0 0 1 0.51,0.5 v 11.81 h 0.06 q 2,-2.83 6.34,-2.84 a 7.88,7.88 0 0 1 6.1,2.53 9.33,9.33 0 0 1 2.31,6.54 v 10.64 a 0.27,0.27 0 0 0 0.3,0.3 h 2.08 a 0.45,0.45 0 0 1 0.5,0.51 v 4 a 0.45,0.45 0 0 1 -0.5,0.51 h -10.55 a 0.45,0.45 0 0 1 -0.51,-0.51 v -4 a 0.45,0.45 0 0 1 0.51,-0.51 h 2.18 a 0.27,0.27 0 0 0 0.3,-0.3 v -9.32 a 6,6 0 0 0 -1.16,-3.88 4.7,4.7 0 0 0 -6.77,0 5.93,5.93 0 0 0 -1.19,3.88 v 9.32 c 0,0.2 0.1,0.3 0.31,0.3 h 2.17 a 0.45,0.45 0 0 1 0.51,0.51 v 4 a 0.45,0.45 0 0 1 -0.51,0.51 h -10.64 a 0.45,0.45 0 0 1 -0.5,-0.51 v -4 a 0.45,0.45 0 0 1 0.5,-0.51 h 2.22 c 0.21,0 0.31,-0.1 0.31,-0.3 v -23.91 a 0.27,0.27 0 0 0 -0.31,-0.31 h -2.18 a 0.44,0.44 0 0 1 -0.5,-0.5 v -4 a 0.44,0.44 0 0 1 0.46,-0.46 z"
       id="path12" />
    <path
       class="cls-1"
       d="m 159.233,-8.0781507 a 19,19 0 0 1 6,0.94 13.23,13.23 0 0 1 4.58,2.4000004 0.92,0.92 0 0 1 0.36,0.71 v 6.08 a 0.45,0.45 0 0 1 -0.51,0.51 h -4.56 a 0.44,0.44 0 0 1 -0.5,-0.51 v -3.00000005 a 0.46,0.46 0 0 0 -0.21,-0.39999995 9.51,9.51 0 0 0 -5.32,-1.37 q -5.56,0 -7.14,4.61 a 28.09,28.09 0 0 0 -0.81,7.9 30.32,30.32 0 0 0 0.66,7.8100003 6.55,6.55 0 0 0 2.4,3.37 8.18,8.18 0 0 0 4.64,1.129999 10.45,10.45 0 0 0 5.62,-1.209999 0.91,0.91 0 0 0 0.51,-0.81 v -6.73 a 0.27,0.27 0 0 0 -0.3,-0.3 h -5.48 a 0.45,0.45 0 0 1 -0.5,-0.51 V 8.5418497 a 0.45,0.45 0 0 1 0.5,-0.51 h 11.05 a 0.45,0.45 0 0 1 0.51,0.51 V 23.031849 a 1.4,1.4 0 0 1 -0.66,1.21 19,19 0 0 1 -11.35,3.25 q -10.18,0 -12.82,-8.059999 -0.85,-2.58 -0.86,-9.6300003 c 0,-4.42 0.32,-7.6 1,-9.52000005 q 2.65,-8.35000035 13.19,-8.36000035 z"
       id="path14" />
    <path
       class="cls-1"
       d="m 186.003,1.9518497 a 11,11 0 0 1 6.38,1.8 9.17,9.17 0 0 1 3.62,4.94 25.09,25.09 0 0 1 0.81,7.3400003 c 0,0.34 -0.18,0.51 -0.55,0.51 h -15.06 a 0.28,0.28 0 0 0 -0.31,0.31 5.34,5.34 0 0 0 0.36,1.87 c 0.84,2.469999 2.67,3.699999 5.47,3.699999 a 7.39,7.39 0 0 0 5.73,-2.329999 c 0.27,-0.27 0.52,-0.31 0.76,-0.1 l 3,2.629999 a 0.46,0.46 0 0 1 0.06,0.71 q -3.56,4.15 -10,4.16 a 11.38,11.38 0 0 1 -6.51,-1.8 9.25,9.25 0 0 1 -3.67,-4.999999 19.67,19.67 0 0 1 -0.86,-6 19.91,19.91 0 0 1 0.81,-6.0000003 9.08,9.08 0 0 1 3.67,-5 11.15,11.15 0 0 1 6.29,-1.74 z m 0,4.81 q -3.75,0 -4.81,3.14 a 6.64,6.64 0 0 0 -0.31,2.0800003 0.28,0.28 0 0 0 0.31,0.31 h 9.57 a 0.28,0.28 0 0 0 0.31,-0.31 6.36,6.36 0 0 0 -0.31,-2.0800003 4.41,4.41 0 0 0 -1.77,-2.3 5.27,5.27 0 0 0 -2.99,-0.84 z"
       id="path16" />
    <path
       class="cls-1"
       d="m 211.143,1.9518497 a 11.2,11.2 0 0 1 6.36,1.77 9.08,9.08 0 0 1 3.67,5 19.55,19.55 0 0 1 0.81,6.0000003 19.64,19.64 0 0 1 -0.81,6 9,9 0 0 1 -3.67,4.999999 11.13,11.13 0 0 1 -6.36,1.78 11.25,11.25 0 0 1 -6.41,-1.78 9,9 0 0 1 -3.67,-4.999999 19.64,19.64 0 0 1 -0.81,-6 19.55,19.55 0 0 1 0.81,-6.0000003 9.08,9.08 0 0 1 3.67,-5 11.32,11.32 0 0 1 6.41,-1.77 z m 0,5.07 a 4.35,4.35 0 0 0 -4.61,3.2200003 15.65,15.65 0 0 0 -0.51,4.51 15.37,15.37 0 0 0 0.51,4.51 4.89,4.89 0 0 0 9.17,0 15.37,15.37 0 0 0 0.51,-4.51 15.65,15.65 0 0 0 -0.51,-4.51 4.32,4.32 0 0 0 -4.56,-3.2200003 z"
       id="path18" />
    <path
       class="cls-1"
       d="m 239.523,2.1518497 a 11.12,11.12 0 0 1 2.38,0.26 c 0.34,0.06 0.51,0.23 0.51,0.5 v 4.41 c 0,0.44 -0.21,0.61 -0.61,0.51 a 20,20 0 0 0 -3,-0.41 c -3.65,0 -5.47,2.1 -5.47,6.2800003 v 7.999999 a 0.27,0.27 0 0 0 0.3,0.3 h 2.37 a 0.45,0.45 0 0 1 0.51,0.51 v 4 a 0.45,0.45 0 0 1 -0.51,0.51 h -10.82 a 0.45,0.45 0 0 1 -0.51,-0.51 v -4 a 0.45,0.45 0 0 1 0.51,-0.51 h 2.18 a 0.27,0.27 0 0 0 0.3,-0.3 V 7.7818497 c 0,-0.21 -0.1,-0.31 -0.3,-0.31 h -2.18 a 0.45,0.45 0 0 1 -0.51,-0.5 v -4 a 0.45,0.45 0 0 1 0.51,-0.5 h 7.65 a 0.45,0.45 0 0 1 0.51,0.5 v 2.54 h 0.05 a 6.75,6.75 0 0 1 6.13,-3.36 z"
       id="path20" />
    <path
       class="cls-1"
       d="m 254.233,1.9818497 q 4.51,0 6.34,2.89 h 0.05 v -1.82 a 0.45,0.45 0 0 1 0.51,-0.51 h 7.65 a 0.45,0.45 0 0 1 0.5,0.51 v 3.95 a 0.44,0.44 0 0 1 -0.5,0.5 h -2.18 a 0.28,0.28 0 0 0 -0.31,0.31 V 25.441849 q 0,5.32 -2.91,8.26 -2.91,2.939999 -8.49,2.939999 a 13.39,13.39 0 0 1 -5,-1 9.3,9.3 0 0 1 -3.89,-2.649999 0.46,0.46 0 0 1 0.05,-0.71 l 3,-3 a 0.46,0.46 0 0 1 0.76,0 7.5,7.5 0 0 0 5.32,2.28 c 3.64,0 5.47,-1.94 5.47,-5.83 v -2.27 h -0.05 c -1.22,1.9 -3.33,2.84 -6.34,2.84 a 8.66,8.66 0 0 1 -5.21,-1.52 8.49,8.49 0 0 1 -3.09,-4.409999 20,20 0 0 1 -0.81,-6.23 19.92,19.92 0 0 1 0.81,-6.1800003 q 1.94,-5.97 8.32,-5.98 z m 1.47,5.07 a 4.13,4.13 0 0 0 -4.3,3.0900003 12.43,12.43 0 0 0 -0.56,4 11.85,11.85 0 0 0 0.56,4 4.55,4.55 0 0 0 8.66,0 11.85,11.85 0 0 0 0.56,-4 12.43,12.43 0 0 0 -0.56,-4 4.17,4.17 0 0 0 -4.36,-3.0900003 z"
       id="path22" />
    <path
       class="cls-1"
       d="m 272.823,2.5118497 h 7.65 a 0.45,0.45 0 0 1 0.51,0.5 V 21.661849 a 0.27,0.27 0 0 0 0.3,0.3 h 2.18 a 0.45,0.45 0 0 1 0.51,0.51 v 4 a 0.45,0.45 0 0 1 -0.51,0.51 h -10.64 a 0.45,0.45 0 0 1 -0.51,-0.51 v -4 a 0.45,0.45 0 0 1 0.51,-0.51 h 2.18 a 0.27,0.27 0 0 0 0.3,-0.3 V 7.7818497 c 0,-0.21 -0.1,-0.31 -0.3,-0.31 h -2.18 a 0.45,0.45 0 0 1 -0.51,-0.5 v -4 a 0.45,0.45 0 0 1 0.51,-0.46 z m 3,-10.0000003 h 4.66 a 0.45,0.45 0 0 1 0.51,0.5 v 4.4100003 a 0.45,0.45 0 0 1 -0.51,0.51 h -4.66 a 0.45,0.45 0 0 1 -0.51,-0.51 v -4.4400003 a 0.45,0.45 0 0 1 0.5,-0.5 z"
       id="path24" />
    <path
       class="cls-1"
       d="m 297.093,1.9518497 q 5.52,0 7.83,2 2.31,2 2.31,6.5300003 v 11.199999 a 0.27,0.27 0 0 0 0.3,0.3 h 2.18 a 0.44,0.44 0 0 1 0.5,0.51 v 4 a 0.44,0.44 0 0 1 -0.5,0.51 h -7.25 a 0.45,0.45 0 0 1 -0.5,-0.51 v -1.84 0 q -2,2.84 -6.79,2.84 a 8.86,8.86 0 0 1 -5.86,-1.93 6.86,6.86 0 0 1 -2.3,-5.569999 6.91,6.91 0 0 1 2.56,-5.86 11.64,11.64 0 0 1 7.17,-2 h 4.86 a 0.27,0.27 0 0 0 0.31,-0.3 v -1 a 4.25,4.25 0 0 0 -1.09,-3.2400003 q -1.09,-1 -3.93,-1 a 11.33,11.33 0 0 0 -2.64,0.31 0.31,0.31 0 0 0 -0.25,0.35 v 2.18 a 0.45,0.45 0 0 1 -0.51,0.51 h -4.49 a 0.45,0.45 0 0 1 -0.51,-0.51 v -5.1 a 0.68,0.68 0 0 1 0.41,-0.66 18.58,18.58 0 0 1 8.19,-1.72 z m 4.46,14.4900003 h -3.95 c -3.48,0 -5.22,1.12 -5.22,3.34 0,2.219999 1.39,3.099999 4.16,3.099999 3.54,0 5.32,-1.39 5.32,-4.159999 v -2 a 0.27,0.27 0 0 0 -0.31,-0.28 z"
       id="path26" />
    <path
       class="cls-1"
       d="m 262.663,66.121848 v 0 a 2.5,2.5 0 0 0 0,5 2.5,2.5 0 0 0 0,-5 z m 0,4.6 a 2.11,2.11 0 0 1 0,-4.21 v 0 a 2.11,2.11 0 0 1 0,4.21 z"
       id="path28" />
    <path
       class="cls-1"
       d="m 263.103,68.701848 v 0 a 0.69,0.69 0 0 0 0.54,-0.68 0.67,0.67 0 0 0 -0.25,-0.57 1.47,1.47 0 0 0 -0.86,-0.21 4.2,4.2 0 0 0 -0.79,0.07 v 2.77 h 0.44 v -1.19 h 0.31 a 0.52,0.52 0 0 1 0.6,0.48 1.84,1.84 0 0 0 0.19,0.71 h 0.46 a 2.49,2.49 0 0 1 -0.18,-0.69 c -0.05,-0.42 -0.22,-0.65 -0.46,-0.69 z m -0.6,-0.18 h -0.32 v -0.94 h 0.32 c 0.5,0 0.68,0.24 0.68,0.49 0,0.25 -0.31,0.45 -0.68,0.45 z"
       id="path30" />
    <path
       class="cls-1"
       d="M 40.222995,-7.5881506 Z"
       id="path32" />
    <path
       class="cls-1"
       d="m 50.303002,17.24185 v 19.849998 h 10.63 v -5.949999 h 6.32 c -1.75,9.099999 -10.77,15.349999 -22.200004,15.349999 -0.79,0 -1.580003,0 -2.370003,-0.1 a 31.23,31.23 0 0 1 -16.39,-5.74 c -4.68,-3.54 -7.14,-8.279999 -7.11,-13.709999 a 20.21,20.21 0 0 1 7,-15.199999 25.88,25.88 0 0 1 16.09,-6.2900003 c 0.38,0 0.77,0 1.16,0 A 33.29,33.29 0 0 1 63.943002,12.96185 c 0.29,0.24 0.36,0.29 0.43,0.34 a 3.1,3.1 0 0 1 0.41,0.33 l 0.17,0.14 h 12.21 V -7.6781506 h -12.41 v 6.2000003 A 47.22,47.22 0 0 0 40.222995,-8.1781506 h -0.17 A 42.88,42.88 0 0 0 9.8229944,4.5218497 c -6.45,6.5500003 -9.9399997,14.5600003 -9.8199997,22.5499993 0.11,8.599999 4.2499997,16.609999 11.6600003,22.549999 a 42.73,42.73 0 0 0 26.36,9 c 1.19,0 2.4,0 3.59,-0.15 9.570007,-0.78 18.060007,-3 24.050007,-6.17 v 2.64 h 13.14 V 31.161849 h 4.12 v 27.529999 h -6.84 v 12.39 H 106.643 v -12.39 H 99.793004 V 31.141849 H 116.353 v 5.949999 h 10.65 V 17.24185 Z M 40.222995,-7.5881506 Z"
       id="path34" />
    <path
       class="cls-1"
       d="m 111.713,67.471848 v 0 a 2.28,2.28 0 1 0 2.29,2.27 2.26,2.26 0 0 0 -2.3,-2.27 z m 0,4.2 a 1.92,1.92 0 0 1 0,-3.84 v 0 a 1.92,1.92 0 0 1 0,3.84 z"
       id="path36" />
    <path
       class="cls-1"
       d="m 112.123,69.831848 v 0 a 0.64,0.64 0 0 0 0.49,-0.62 0.63,0.63 0 0 0 -0.23,-0.53 1.33,1.33 0 0 0 -0.79,-0.19 4.49,4.49 0 0 0 -0.71,0.06 v 2.54 h 0.4 v -1.09 h 0.28 a 0.47,0.47 0 0 1 0.55,0.44 1.93,1.93 0 0 0 0.17,0.65 h 0.42 a 2.18,2.18 0 0 1 -0.16,-0.63 c -0.05,-0.39 -0.2,-0.59 -0.42,-0.63 z m -0.55,-0.17 h -0.29 v -0.85 h 0.29 c 0.46,0 0.62,0.22 0.62,0.44 0,0.22 -0.28,0.41 -0.62,0.41 z"
       id="path38" />
  </g>
</svg>
